# Blender v2.80 (sub 52) OBJ File: 'untitled.blend'
# www.blender.org
mtllib Scene.mtl
o Plane
v -0.000040 0.000000 -150.000000
v -150.000046 0.000000 -149.999954
v 0.000058 0.000000 150.000000
v -149.999954 0.000000 150.000046
vt 0.000000 0.000000
vt 1.000000 0.000000
vt 1.000000 1.000000
vt 0.000000 1.000000
vn 0.0000 1.0000 0.0000
usemtl None
s off
f 1/1/1 2/2/1 4/3/1 3/4/1
o Plane.001
v 150.000000 0.000000 -150.000046
v -150.000000 0.000000 -149.999939
v 150.000000 300.000000 -150.000061
v -150.000000 300.000000 -149.999954
vt 0.000000 0.000000
vt 0.000000 1.000000
vt 1.000000 1.000000
vt 1.000000 0.000000
vn 0.0000 0.0000 1.0000
usemtl None
s off
f 5/5/2 7/6/2 8/7/2 6/8/2
o Plane.002
v -0.000058 0.000000 -150.000000
v 0.000040 0.000000 150.000000
v 149.999954 299.999969 -150.000046
v 150.000046 299.999969 149.999954
v 76.763832 0.000000 -150.000031
v 149.999954 73.236122 -150.000046
v 86.323059 0.626542 -150.000031
v 95.718735 2.495460 -150.000031
v 104.790077 5.574770 -150.000031
v 113.381889 9.811780 -150.000031
v 121.347160 15.134003 -150.000046
v 128.549591 21.450367 -150.000046
v 134.865952 28.652796 -150.000046
v 140.188171 36.618061 -150.000046
v 144.425186 45.209877 -150.000046
v 147.504501 54.281223 -150.000046
v 149.373413 63.676895 -150.000046
v 150.000046 73.236122 149.999954
v 76.763924 0.000000 149.999969
v 149.373505 63.676895 149.999954
v 147.504593 54.281223 149.999954
v 144.425278 45.209877 149.999954
v 140.188263 36.618061 149.999954
v 134.866043 28.652796 149.999954
v 128.549683 21.450367 149.999954
v 121.347252 15.134003 149.999954
v 113.381981 9.811780 149.999969
v 104.790169 5.574770 149.999969
v 95.718826 2.495460 149.999969
v 86.323151 0.626542 149.999969
vt 0.488241 0.000000
vt 1.000000 0.000000
vt 1.000000 1.000000
vt 0.488241 1.000000
vt 0.000000 1.000000
vt 0.000000 0.000000
vt 0.000000 0.000000
vt 0.000000 1.000000
vt 0.000000 0.000000
vt 0.000000 1.000000
vt 0.000000 0.000000
vt 0.000000 1.000000
vt 0.000000 0.000000
vt 0.000000 1.000000
vt 0.000000 0.000000
vt 0.000000 1.000000
vt 0.000000 0.000000
vt 0.000000 1.000000
vt 0.191019 0.000000
vt 0.191019 1.000000
vt 0.244120 0.000000
vt 0.244120 1.000000
vt 0.301399 0.000000
vt 0.301399 1.000000
vt 0.361875 0.000000
vt 0.361875 1.000000
vt 0.424513 0.000000
vt 0.424513 1.000000
vt 0.000000 1.000000
vt 0.000000 0.000000
vn -0.0327 0.9995 0.0000
vn 0.0000 1.0000 0.0000
vn -0.9995 0.0327 0.0000
vn -0.9914 0.1305 0.0000
vn -0.9659 0.2588 0.0000
vn -0.9239 0.3827 0.0000
vn -0.8660 0.5000 0.0000
vn -0.7933 0.6088 0.0000
vn -0.7071 0.7071 0.0000
vn -0.6088 0.7933 0.0000
vn -0.5000 0.8660 0.0000
vn -0.3827 0.9239 0.0000
vn -0.2588 0.9659 0.0000
vn -0.1305 0.9914 0.0000
vn -1.0000 0.0000 0.0000
usemtl None
s 1
f 13/9/3 9/10/4 10/11/4 27/12/3
f 26/13/5 14/14/5 25/15/6 28/16/6
f 28/16/6 25/15/6 24/17/7 29/18/7
f 29/18/7 24/17/7 23/19/8 30/20/8
f 30/20/8 23/19/8 22/21/9 31/22/9
f 31/22/9 22/21/9 21/23/10 32/24/10
f 32/24/10 21/23/10 20/25/11 33/26/11
f 33/26/11 20/25/11 19/27/12 34/28/12
f 34/28/12 19/27/12 18/29/13 35/30/13
f 35/30/13 18/29/13 17/31/14 36/32/14
f 36/32/14 17/31/14 16/33/15 37/34/15
f 37/34/15 16/33/15 15/35/16 38/36/16
f 38/36/16 15/35/16 13/9/3 27/12/3
f 14/14/5 26/13/5 12/37/17 11/38/17
